<?xml version="1.0" encoding="UTF-8"?>
<svg id="Layer_1" xmlns="http://www.w3.org/2000/svg" version="1.1" viewBox="0 0 300 360">
  <!-- Generator: Adobe Illustrator 29.0.1, SVG Export Plug-In . SVG Version: 2.1.0 Build 192)  -->
  <defs>
    <style>
      .st0 {
        fill: #fff;
      }

      .st1 {
        fill: #f01414;
      }
    </style>
  </defs>
  <g>
    <polygon class="st0" points="291.28 291.43 291.28 260.71 258.74 264.13 291.28 291.43"/>
    <polygon class="st1" points="248.18 265.23 9.99 290.27 153.27 349.39 284.12 295.4 248.18 265.23"/>
  </g>
  <polygon class="st1" points="39.63 115.88 8.72 89.94 8.72 94.77 8.72 119.13 34.52 116.42 34.52 116.42 39.63 115.88"/>
  <g>
    <polygon class="st1" points="8.72 282.77 8.72 208.58 77.45 201.36 77.45 219.91 29.45 224.95 29.45 234.5 70.91 230.14 70.91 247.59 29.45 251.95 29.45 280.59 8.72 282.77"/>
    <polygon class="st1" points="222.55 178.47 222.55 104.29 291.28 97.07 291.28 115.61 243.27 120.66 243.27 129.93 284.73 125.57 284.73 141.94 243.27 146.29 243.27 157.75 291.28 152.7 291.28 171.25 222.55 178.47"/>
    <polygon class="st1" points="105.82 190.74 105.82 116.56 126.55 114.38 126.55 188.56 105.82 190.74"/>
    <path class="st1" d="M213.82,105.21h0l-78.55,8.26v74.18l20.73-2.18h0l26.79-2.82,31.03-21.18v-56.27h0ZM156,129.83l38.18-4.01v25.76l-19.63,13.4-18.55,1.95v-37.09Z"/>
    <path class="st1" d="M190.22,189.51h0l-90.41,9.5h0l-14.72,1.55v74.18l20.73-2.18h0l77.46-8.14h0l20.73-2.18v-74.18l-13.78,1.45ZM105.82,254.02v-37.09l77.46-8.14v37.09l-77.46,8.14Z"/>
    <polygon class="st1" points="76.36 119.65 76.36 161.83 62.72 139.63 43.1 141.7 29.45 166.76 29.45 124.58 8.72 126.76 8.72 200.95 25.13 199.22 36.17 198.06 53.54 166.15 70.91 194.41 76.36 193.84 76.36 193.84 97.09 191.66 97.09 117.48 76.36 119.65"/>
    <polygon class="st1" points="291.28 178.89 270.55 181.06 270.55 195.65 251.46 208.68 233.46 200.18 233.46 184.96 212.73 187.14 212.73 210.55 234 220.59 212.73 235.11 212.73 261.32 233.46 259.15 233.46 242.38 252.55 229.35 270.55 237.85 270.55 255.25 291.28 253.07 291.28 227.48 270 217.44 291.28 202.92 291.28 178.89"/>
  </g>
  <path class="st1" d="M225.93,44.94H68.49L8.72,15.25v64.73l41.47,34.79,241.08-25.34V15.25l-65.34,29.7ZM91.4,72.22h-45.82v-9.82l45.82,2.18v7.64ZM248.84,72.22h-45.82v-7.64l45.82-2.18v9.82Z"/>
</svg>